<svg width="200" height="54" viewBox="0 0 200 54" fill="none" xmlns="http://www.w3.org/2000/svg">
<path d="M64.8951 30.3369H43.6531V44.6779H68.5829V53.54H32.5895V0H68.5092V8.93559H43.6531V21.6955H64.8951V30.3369Z" fill="#29D1DD"/>
<path d="M86.1371 44.6779H109.629V53.54H75.0736V0H86.1371V44.6779Z" fill="#29D1DD"/>
<path d="M127.072 34.676V53.54H116.009V0H136.956C140.988 0 144.528 0.735439 147.577 2.20632C150.65 3.6772 153.01 5.7732 154.657 8.49432C156.305 11.1909 157.128 14.2675 157.128 17.7241C157.128 22.9702 155.321 27.1132 151.707 30.153C148.118 33.1683 143.139 34.676 136.771 34.676H127.072ZM127.072 25.7404H136.956C139.881 25.7404 142.106 25.054 143.631 23.6811C145.18 22.3083 145.954 20.3472 145.954 17.7976C145.954 15.1746 145.18 13.054 143.631 11.4361C142.082 9.81811 139.943 8.98462 137.214 8.93559H127.072V25.7404Z" fill="#29D1DD"/>
<path d="M44.2287 53.54L33.0316 53.54L33.0316 30.5943L11.1972 30.5943L11.1972 53.54L2.43626e-05 53.54L2.28882e-05 -2.85829e-08L11.1972 -2.13465e-08L11.1972 21.6955L33.0316 21.6955L33.0316 -7.2362e-09L44.2287 0L44.2287 53.54Z" fill="#29D1DD"/>
<path d="M181.903 49.0484L177.867 53.4108L154.8 32.068L158.837 27.7056L181.903 49.0484Z" fill="#F8F8F2"/>
<path d="M180.783 11.7094L174.782 18.1949L193.999 35.9757L189.963 40.3381L170.746 22.5573L164.826 28.9555L160.976 25.3935L176.934 8.14739L180.783 11.7094Z" fill="#F8F8F2"/>
</svg>
